PathFileType	4	(X/Y/Z) abd_0kg_1.trc																										
DataRate	CameraRate	NumFrames	NumMarkers	Units	OrigDataRate	OrigDataStartFrame	OrigNumFrames																					
100	100	24	9	mm	100	546	1091																					
Frame#	Time	gu			centelbow			EpL			centpxt8			centijc7			ij			ts			aa			ai		
		X1	Y1	Z1	X2	Y2	Z2	X3	Y3	Z3	X4	Y4	Z4	X5	Y5	Z5	X6	Y6	Z6	X7	Y7	Z7	X8	Y8	Z8	X9	Y9	Z9  
545	5.45	-83.486	57.404	120.726	-104.539	174.536	337.108	-121.28	195.699	319.466	-46.816	-153.158	-8.669	-46.816	31.938	-8.669	0	0	0	-132.638	-8.485	36.766	-124.524	78.153	118.331	-135.169	-82.259	123.002
546	5.46	-83.421	56.97	120.975	-104.205	175.252	336.756	-120.992	196.308	319.028	-46.816	-153.158	-8.669	-46.816	31.938	-8.669	0	0	0	-132.615	-8.44	36.723	-124.597	78.374	118.11	-135.107	-82.037	123.111
547	5.47	-83.337	56.751	120.941	-103.792	176.177	336.123	-120.637	197.119	318.317	-46.816	-153.158	-8.669	-46.816	31.938	-8.669	0	0	0	-132.571	-8.713	36.965	-124.633	78.263	118.187	-135.133	-82.139	123.496
548	5.48	-83.259	57.074	120.536	-103.328	177.688	335.091	-120.258	198.5	317.211	-46.816	-153.158	-8.669	-46.816	31.938	-8.669	0	0	0	-132.623	-9.044	37.167	-124.745	78.086	118.231	-135.281	-82.304	123.837
549	5.49	-83.268	57.6	120.102	-102.964	179.417	334.011	-119.984	200.092	316.059	-46.816	-153.158	-8.669	-46.816	31.938	-8.669	0	0	0	-132.667	-9.222	37.177	-124.849	78.063	118.078	-135.395	-82.315	123.986
550	5.5	-83.45	57.857	119.902	-102.825	180.859	333.161	-119.916	201.409	315.132	-46.816	-153.158	-8.669	-46.816	31.938	-8.669	0	0	0	-132.622	-9.256	37.13	-124.878	78.192	117.863	-135.408	-82.175	124.082
551	5.51	-83.737	57.781	119.885	-102.809	181.964	332.485	-119.947	202.401	314.372	-46.816	-153.158	-8.669	-46.816	31.938	-8.669	0	0	0	-132.593	-9.284	37.211	-124.928	78.33	117.77	-135.459	-82.025	124.31
552	5.52	-83.96	57.653	119.799	-102.688	183.021	331.733	-119.862	203.352	313.536	-46.816	-153.158	-8.669	-46.816	31.938	-8.669	0	0	0	-132.694	-9.407	37.442	-125.098	78.377	117.822	-135.667	-81.961	124.693
553	5.53	-84.013	57.723	119.434	-102.337	184.264	330.706	-119.55	204.491	312.43	-46.816	-153.158	-8.669	-46.816	31.938	-8.669	0	0	0	-132.824	-9.594	37.704	-125.29	78.366	117.898	-135.908	-81.954	125.113
554	5.54	-83.869	57.943	118.884	-101.77	185.648	329.491	-119.025	205.771	311.14	-46.816	-153.158	-8.669	-46.816	31.938	-8.669	0	0	0	-132.756	-9.745	37.888	-125.291	78.396	117.89	-135.924	-81.906	125.457
555	5.55	-83.619	58.121	118.451	-101.152	186.982	328.384	-118.445	207	309.955	-46.816	-153.158	-8.669	-46.816	31.938	-8.669	0	0	0	-132.493	-9.781	37.923	-125.103	78.537	117.735	-135.718	-81.749	125.648
556	5.56	-83.469	58.187	118.289	-100.727	188.183	327.544	-118.05	208.098	309.031	-46.816	-153.158	-8.669	-46.816	31.938	-8.669	0	0	0	-132.343	-9.694	37.731	-125.02	78.789	117.368	-135.615	-81.484	125.601
557	5.57	-83.517	58.126	118.354	-100.543	189.235	326.932	-117.888	209.05	308.333	-46.816	-153.158	-8.669	-46.816	31.938	-8.669	0	0	0	-132.493	-9.556	37.357	-125.22	79.072	116.837	-135.816	-81.185	125.356
558	5.58	-83.614	57.927	118.54	-100.362	190.142	326.441	-117.722	209.864	307.757	-46.816	-153.158	-8.669	-46.816	31.938	-8.669	0	0	0	-132.799	-9.483	37.048	-125.57	79.274	116.387	-136.193	-80.968	125.161
559	5.59	-83.564	57.77	118.653	-99.944	191.111	325.863	-117.325	210.739	307.099	-46.816	-153.158	-8.669	-46.816	31.938	-8.669	0	0	0	-133.047	-9.558	37.002	-125.876	79.319	116.212	-136.545	-80.907	125.222
560	5.6	-83.407	57.902	118.475	-99.366	192.401	324.969	-116.789	211.921	306.133	-46.816	-153.158	-8.669	-46.816	31.938	-8.669	0	0	0	-133.158	-9.751	37.161	-126.06	79.25	116.238	-136.774	-80.959	125.49
561	5.61	-83.384	58.281	118.021	-98.924	193.927	323.795	-116.409	213.328	304.893	-46.816	-153.158	-8.669	-46.816	31.938	-8.669	0	0	0	-133.195	-9.909	37.295	-126.177	79.237	116.216	-136.905	-80.954	125.751
562	5.62	-83.63	58.601	117.585	-98.771	195.335	322.668	-116.323	214.618	303.707	-46.816	-153.158	-8.669	-46.816	31.938	-8.669	0	0	0	-133.322	-9.904	37.218	-126.377	79.418	115.947	-137.07	-80.755	125.828
563	5.63	-83.966	58.575	117.502	-98.708	196.344	321.919	-116.315	215.52	302.902	-46.816	-153.158	-8.669	-46.816	31.938	-8.669	0	0	0	-133.554	-9.821	37.031	-126.676	79.693	115.547	-137.299	-80.46	125.81
564	5.64	-84.028	58.146	117.75	-98.312	196.95	321.499	-115.965	216.028	302.425	-46.816	-153.158	-8.669	-46.816	31.938	-8.669	0	0	0	-133.674	-9.898	37.052	-126.865	79.796	115.367	-137.436	-80.337	125.99
565	5.65	-83.732	57.661	117.882	-97.432	197.55	320.927	-115.143	216.524	301.804	-46.816	-153.158	-8.669	-46.816	31.938	-8.669	0	0	0	-133.561	-10.204	37.337	-126.816	79.643	115.483	-137.395	-80.469	126.408
566	5.66	-83.374	57.642	117.567	-96.385	198.673	319.867	-114.185	217.526	300.705	-46.816	-153.158	-8.669	-46.816	31.938	-8.669	0	0	0	-133.342	-10.521	37.581	-126.643	79.457	115.58	-137.27	-80.633	126.769
567	5.67	-83.19	58.198	116.974	-95.524	200.387	318.504	-113.439	219.099	299.312	-46.816	-153.158	-8.669	-46.816	31.938	-8.669	0	0	0	-133.178	-10.617	37.605	-126.507	79.487	115.462	-137.17	-80.584	126.904
568	5.68	-83.142	58.887	116.448	-94.857	202.216	317.207	-112.891	220.784	297.986	-46.816	-153.158	-8.669	-46.816	31.938	-8.669	0	0	0	-133.131	-10.503	37.534	-126.487	79.726	115.247	-137.154	-80.326	126.944
